PathFileType	4	(X/Y/Z)	G:\TennisProject\Miami_Dimitrov_Sinner_masked_Sports2D\Miami_Dimitrov_Sinner_masked_Sports2D_px_person03.trc
DataRate	CameraRate	NumFrames	NumMarkers	Units	OrigDataRate	OrigDataStartFrame	OrigNumFrames
25	25	12	22	m	25	62	499
Frame#	Time	Hip			RHip			RKnee			RAnkle			RBigToe			RSmallToe			RHeel			LHip			LKnee			LAnkle			LBigToe			LSmallToe			LHeel			Neck			Head			Nose			RShoulder			RElbow			RWrist			LShoulder			LElbow			LWrist		
		X1	Y1	Z1	X2	Y2	Z2	X3	Y3	Z3	X4	Y4	Z4	X5	Y5	Z5	X6	Y6	Z6	X7	Y7	Z7	X8	Y8	Z8	X9	Y9	Z9	X10	Y10	Z10	X11	Y11	Z11	X12	Y12	Z12	X13	Y13	Z13	X14	Y14	Z14	X15	Y15	Z15	X16	Y16	Z16	X17	Y17	Z17	X18	Y18	Z18	X19	Y19	Z19	X20	Y20	Z20	X21	Y21	Z21	X22	Y22	Z22
62	2.48	574.6913149719506	169.39663757546364	0.0	568.660825917705	169.8303164898923	0.0	567.5017081679939	191.68654452082822	0.0	567.2270103487115	213.6773662501945	0.0	564.7077909596085	219.2508643166413	0.0	562.0779224346103	218.82721620963176	0.0	568.1840648232862	217.40517598714433	0.0	580.6219874674844	169.9668176928475	0.0	583.6333365975345	191.52651108752025	0.0	585.7318477330298	213.26400265760793	0.0	586.9490489600674	218.80919304314506	0.0	589.6335745641153	218.3047316657043	0.0	583.1317121800818	216.96461084979043	0.0	573.7919575367981	138.52580137741563	0.0	572.7270707765931	124.98169525695498	0.0	572.6559456988966	132.30837611312478	0.0	563.7660447690414	143.93064900718957	0.0	562.6472857470783	156.2148622598147	0.0	570.1722897251522	162.49763257706033	0.0	584.5060959326241	143.425701392806	0.0	586.786259027924	155.9892678869153	0.0	580.2286896760414	162.9226827656209	0.0
63	2.52	574.7412079463257	169.41758273130532	0.0	568.6120512444055	169.8727888552579	0.0	567.5214072431286	191.71045943189452	0.0	567.1779755697492	213.73248486409358	0.0	564.7596366656999	219.15273919035025	0.0	562.2190820416205	218.67772653800125	0.0	568.3383431591617	217.3622074143322	0.0	580.5367968053139	169.96686654914043	0.0	583.5000956359358	191.57548636146305	0.0	585.7814529100481	213.400424399915	0.0	587.0062092764573	218.5597640527785	0.0	589.5521550988728	217.95786582237042	0.0	583.582938810362	216.8300505806848	0.0	573.7897998355543	138.53239518990338	0.0	572.7550363550539	125.08616157742394	0.0	572.6800058910239	132.36811761467433	0.0	563.6915705318123	144.02807826661174	0.0	562.6499693017261	156.29908270202282	0.0	570.1998206612612	162.65201148001768	0.0	584.426804201978	143.37587112700618	0.0	586.7586744892377	156.16874533996375	0.0	579.9167280566141	162.9385910440805	0.0
64	2.56	574.7191737853132	169.41609622122309	0.0	568.53477953323	169.93505419047608	0.0	567.4891826548173	191.74094816467033	0.0	567.1117067724008	213.77111516232367	0.0	564.9247542857595	218.98759625296893	0.0	562.3756972667528	218.497555837653	0.0	568.3184871389926	217.3066453696278	0.0	580.4805558422473	169.9415881353998	0.0	583.3729520910737	191.60470271197894	0.0	585.733960203903	213.51112877496067	0.0	587.1153241587512	218.29070996328056	0.0	589.5202538263042	217.71184507831276	0.0	584.0582589039	216.70492824058698	0.0	573.7844214558684	138.65419213005316	0.0	572.8349037187888	125.24264572338986	0.0	572.734191366808	132.50512189417265	0.0	563.6193811240723	144.1252687488867	0.0	562.6778349742101	156.3644464668759	0.0	570.354570698589	162.78222653544813	0.0	584.3739047637321	143.3662923588898	0.0	586.7095006117527	156.27347607801622	0.0	579.5261212789014	162.88968253124546	0.0
65	2.6	574.6198697934243	169.33897057340567	0.0	568.5102207691002	169.88958561114106	0.0	567.4284228897912	191.71548479254838	0.0	567.0956313082334	213.74694836028777	0.0	564.9210196391712	219.0387942254541	0.0	562.27068441848	218.66173140417206	0.0	568.0942990026452	217.35291633725876	0.0	580.516957088802	169.88510819268737	0.0	583.4440949353265	191.58208087661487	0.0	585.6930013001696	213.39724932800368	0.0	587.0717100519978	218.53752727237605	0.0	589.6964081934747	218.07261377086766	0.0	583.6434038903553	216.83136993028916	0.0	573.896083840086	138.7080696874453	0.0	572.8620228267285	125.22149001942476	0.0	572.8066751377495	132.55893373565846	0.0	563.7205644433657	144.05665822502854	0.0	562.698984024997	156.16047527050813	0.0	570.3490821430407	162.60606925755346	0.0	584.4674246635818	143.39196840155864	0.0	586.6815602077457	156.02637111726872	0.0	579.8452067922101	162.8388464388221	0.0
66	2.64	574.5426607811532	169.27515442239226	0.0	568.5278483757388	169.84986796588095	0.0	567.3846787535856	191.68940668043643	0.0	567.0951080744271	213.73195163140852	0.0	564.8303318514637	219.1542543386479	0.0	562.1903840477124	218.85691393763585	0.0	567.9542581380674	217.36877581383658	0.0	580.5621590381727	169.84456059693332	0.0	583.4871179615845	191.52999695234843	0.0	585.6987987401924	213.24085863065838	0.0	586.9602312751593	218.7577370434248	0.0	589.7928045727841	218.33695769742923	0.0	583.2031913160599	216.91350588280162	0.0	573.982391284458	138.63925169865934	0.0	572.8389143920851	125.11704809511626	0.0	572.830525226279	132.55674292452437	0.0	563.8800358166711	144.00051201337584	0.0	562.7454250686101	156.04014701341666	0.0	570.2712912711122	162.43443200945336	0.0	584.5635857943739	143.41885770115317	0.0	586.6338548773269	155.80966205078266	0.0	580.2123263316889	162.88937632914775	0.0
67	2.68	574.5362690545945	169.28752137413016	0.0	568.5632718430365	169.90269689459234	0.0	567.3958471059311	191.71347584474213	0.0	567.0764757023435	213.772507136395	0.0	564.8815769665255	219.1041380085005	0.0	562.3470955102412	218.70939665793267	0.0	568.0612494843523	217.25698875865558	0.0	580.5457156801217	169.8360974304951	0.0	583.3505307592471	191.50175861482296	0.0	585.6606813504412	213.28606646947142	0.0	586.9982576912179	218.46913589157788	0.0	589.6342360848005	217.99423158628602	0.0	583.6093377213122	216.7371516543455	0.0	573.8923261757737	138.60420917399966	0.0	572.8428882883818	125.10372386151485	0.0	572.7830468121005	132.55190662309477	0.0	563.8864739730277	144.1063873203695	0.0	562.7774150486059	156.26036496664395	0.0	570.3167940135977	162.54914101401727	0.0	584.5157655624811	143.42435721579153	0.0	586.6082421118606	155.99465184197155	0.0	579.8697572030067	162.98952160946456	0.0
68	2.72	574.5686793678483	169.30126047045155	0.0	568.6038927009383	169.94075823291595	0.0	567.4396420814271	191.69473288032958	0.0	567.0617228258967	213.79822662295558	0.0	564.9709160273492	219.01668554526714	0.0	562.4204487721246	218.53159371443442	0.0	568.1919854490009	217.17380048758986	0.0	580.5309683398252	169.82710452298812	0.0	583.2618057821462	191.51064327423111	0.0	585.6097010703575	213.37121494376623	0.0	587.0801271988927	218.235790094284	0.0	589.4991164767056	217.74327861988485	0.0	584.0124432309685	216.65377342184433	0.0	573.7445942950549	138.62581689689145	0.0	572.8789216104097	125.08664699270395	0.0	572.7658410932717	132.473791949728	0.0	563.7785505979016	144.1907916139541	0.0	562.7247221162703	156.44330764188194	0.0	570.3970706347048	162.57923365142642	0.0	584.4453069447457	143.43284357342966	0.0	586.6808509162574	156.25546921305184	0.0	579.504605796782	162.9845345285449	0.0
69	2.7600000000000002	574.6235225061107	169.30172046008477	0.0	568.6327733233638	169.91832625143815	0.0	567.476717706882	191.59334793480477	0.0	567.0595862732857	213.76869030035405	0.0	564.8757108107818	219.09120784570845	0.0	562.2056281824845	218.69945354082122	0.0	568.1441970493296	217.24099776625212	0.0	580.6092317813444	169.8492758757182	0.0	583.4069747468686	191.53344895462155	0.0	585.629730470658	213.278707792996	0.0	587.0457272077283	218.48684165158127	0.0	589.5912777930286	218.0965658593143	0.0	583.5676072140657	216.85728373272363	0.0	573.7289989863087	138.55546786289798	0.0	572.9186891785229	124.94641954182461	0.0	572.8587059714516	132.28933253479303	0.0	563.7286388172073	144.05701624228746	0.0	562.6353054073029	156.31349685596678	0.0	570.3809546789487	162.26732482473108	0.0	584.4863092476089	143.47927091886092	0.0	586.7920742253655	156.16354711473986	0.0	579.8343664414845	162.8329964750989	0.0
70	2.8000000000000003	574.6742003241903	169.37794816209825	0.0	568.6577786793891	169.95080953969432	0.0	567.5078228048166	191.56393020001954	0.0	567.0762342519998	213.75107751320422	0.0	564.7035870128686	219.1940751265676	0.0	562.0567316356739	218.89371828683682	0.0	568.0797337408663	217.32077639306476	0.0	580.7166380789567	169.9497632283182	0.0	583.5694786683368	191.56920593095387	0.0	585.6447734172001	213.1882545993606	0.0	587.0416647321638	218.67210610642258	0.0	589.6602635416642	218.37486754570574	0.0	583.1433165738076	216.95751240323034	0.0	573.7948845696499	138.42586938659414	0.0	572.9522849002296	124.84081507643583	0.0	572.9587993819299	132.17701915122728	0.0	563.7534367471565	143.88693657512115	0.0	562.6133790700958	156.20082056464037	0.0	570.3916609595498	162.07285353570776	0.0	584.5053059251718	143.52315128250746	0.0	586.8267510624959	155.9762779702124	0.0	580.1561397432802	162.69634822586562	0.0
71	2.84	574.6741955034629	169.48964208416453	0.0	568.6583578014383	170.03162125721747	0.0	567.5174343604895	191.64789375189963	0.0	567.099287405518	213.77347541249753	0.0	564.6918502711239	219.11594376235595	0.0	562.2183654094641	218.72271532136858	0.0	568.173534472066	217.2802956519194	0.0	580.6955907095647	170.04153042319425	0.0	583.4946291593263	191.59034167002437	0.0	585.6052820305501	213.28156662265872	0.0	587.163306022738	218.39761968794895	0.0	589.5009495309635	218.07353093199094	0.0	583.6091659862155	216.74774298424978	0.0	573.7900970759638	138.41574272478826	0.0	572.9661937697949	124.95342912163642	0.0	572.919011796344	132.2548132765499	0.0	563.7519403957665	143.93670630597035	0.0	562.6501225786989	156.28285843805492	0.0	570.5174662535842	162.25364739001807	0.0	584.3712193537466	143.48950378049085	0.0	586.7721884694491	156.0733988085052	0.0	579.7839044142752	162.69312836281182	0.0
72	2.88	574.6617173594423	169.47376176999927	0.0	568.6133421045047	170.01133574525628	0.0	567.4589488755873	191.67272366622038	0.0	567.0810307321492	213.76993938699547	0.0	564.7786226048936	218.9891692913355	0.0	562.3432644116242	218.504459565806	0.0	568.2821400285442	217.22369637814762	0.0	580.55675262971	169.99827537589854	0.0	583.3717309912201	191.55958935242455	0.0	585.6195285868794	213.35826076111846	0.0	587.2042311127697	218.18835759518228	0.0	589.3967230287628	217.83109392426724	0.0	584.0558738059734	216.62364728137294	0.0	573.7682484870434	138.49510182464968	0.0	572.9751286120796	125.15315582978002	0.0	572.7886992582542	132.3564469758501	0.0	563.714112859782	144.0586953437011	0.0	562.6476607378535	156.2171319969346	0.0	570.532210151815	162.3714254880546	0.0	584.2586656823129	143.40070625287706	0.0	586.6910388747162	156.21006395056398	0.0	579.4301171638356	162.7454570510846	0.0
73	2.92	574.701592671074	169.333681353242	0.0	568.6014656716396	169.86558780496705	0.0	567.3469100757599	191.60557174593748	0.0	567.0285114504582	213.72583282047594	0.0	564.7693120799152	219.03598727026542	0.0	562.186299024144	218.64469601388052	0.0	568.2375137279815	217.25071476379227	0.0	580.4604167536825	169.8681248867239	0.0	583.4664956519149	191.54320734816943	0.0	585.6900468361105	213.24850413673448	0.0	587.0209207281783	218.4524420335092	0.0	589.5806398626564	218.12377087875862	0.0	583.5775986137804	216.80611762705774	0.0	573.8329136431377	138.53007043296057	0.0	573.0010395761431	125.24028496970851	0.0	572.7158397112803	132.37246957942932	0.0	563.7038140985007	144.01239264531733	0.0	562.6144652789271	155.93474397479554	0.0	570.3014567224884	162.23306862306927	0.0	584.3453784923186	143.34928641638004	0.0	586.6323222884007	156.09103405730107	0.0	579.784413241918	162.79679157107867	0.0
